<?xml version="1.0" encoding="UTF-8" standalone="no"?>
<!DOCTYPE svg PUBLIC "-//W3C//DTD SVG 1.1//EN"
 "http://www.w3.org/Graphics/SVG/1.1/DTD/svg11.dtd">
<!-- Generated by graphviz version 2.40.1 (20161225.0304)
 -->
<!-- Title: DG_Scoring Pages: 1 -->
<svg width="1027pt" height="638pt"
 viewBox="0.00 0.00 1026.90 638.00" xmlns="http://www.w3.org/2000/svg" xmlns:xlink="http://www.w3.org/1999/xlink">
<g id="graph0" class="graph" transform="scale(1 1) rotate(0) translate(4 634)">
<title>DG_Scoring</title>
<polygon fill="#ffffff" stroke="transparent" points="-4,4 -4,-634 1022.9004,-634 1022.9004,4 -4,4"/>
<g id="clust1" class="cluster">
<title>cluster_expr</title>
<polygon fill="#ffffff" stroke="#ff7033" points="19.7595,-545 19.7595,-622 462.4107,-622 462.4107,-545 19.7595,-545"/>
<text text-anchor="middle" x="241.0851" y="-605.4" font-family="Times,serif" font-size="14.00" fill="#000000">Expression Evidence</text>
</g>
<g id="clust2" class="cluster">
<title>cluster_kegg</title>
<polygon fill="#ffffff" stroke="#02d45c" points="8,-352 8,-537 445.8997,-537 445.8997,-352 8,-352"/>
<text text-anchor="middle" x="226.9499" y="-520.4" font-family="Times,serif" font-size="14.00" fill="#000000">Pathway Evidence (KEGG)</text>
</g>
<g id="clust3" class="cluster">
<title>cluster_react</title>
<polygon fill="#ffffff" stroke="#ffe30d" points="244.8968,-159 244.8968,-344 480.432,-344 480.432,-159 244.8968,-159"/>
<text text-anchor="middle" x="362.6644" y="-327.4" font-family="Times,serif" font-size="14.00" fill="#000000">Pathway Evidence (Reactome)</text>
</g>
<g id="clust4" class="cluster">
<title>cluster_gene</title>
<polygon fill="#ffffff" stroke="#2e88d1" points="247.94,-8 247.94,-151 477.3888,-151 477.3888,-8 247.94,-8"/>
<text text-anchor="middle" x="362.6644" y="-134.4" font-family="Times,serif" font-size="14.00" fill="#000000">Gene&#45;level Context</text>
</g>
<!-- R1 -->
<g id="node1" class="node">
<title>R1</title>
<polygon fill="#ff7033" stroke="#000000" points="205.3265,-589 27.5703,-589 27.5703,-553 205.3265,-553 205.3265,-589"/>
<text text-anchor="middle" x="116.4484" y="-574.3" font-family="Helvetica,sans-Serif" font-size="11.00" fill="#ffffff">① DEG↑ (log2FC&gt;0, adj.p&lt;0.05)</text>
<text text-anchor="middle" x="116.4484" y="-561.1" font-family="Helvetica,sans-Serif" font-size="11.00" fill="#ffffff">→ +0.3</text>
</g>
<!-- R2 -->
<g id="node2" class="node">
<title>R2</title>
<polygon fill="#ffb57d" stroke="#000000" points="454.6577,-589 270.6711,-589 270.6711,-553 454.6577,-553 454.6577,-589"/>
<text text-anchor="middle" x="362.6644" y="-574.3" font-family="Helvetica,sans-Serif" font-size="11.00" fill="#000000">② BuOE↓ (log2FC&lt;0, adj.p&lt;0.05)</text>
<text text-anchor="middle" x="362.6644" y="-561.1" font-family="Helvetica,sans-Serif" font-size="11.00" fill="#000000">only if ① true → ×1.2</text>
</g>
<!-- R1&#45;&gt;R2 -->
<g id="edge1" class="edge">
<title>R1&#45;&gt;R2</title>
<path fill="none" stroke="#ff7033" stroke-width="2" d="M205.338,-571C223.2363,-571 242.1828,-571 260.4927,-571"/>
<polygon fill="#ff7033" stroke="#ff7033" stroke-width="2" points="260.5888,-574.5001 270.5887,-571 260.5887,-567.5001 260.5888,-574.5001"/>
</g>
<!-- INT -->
<g id="node13" class="node">
<title>INT</title>
<ellipse fill="#b3e5fc" stroke="#000000" cx="643.8816" cy="-293" rx="135.3992" ry="18"/>
<text text-anchor="middle" x="643.8816" y="-289.7" font-family="Helvetica,sans-Serif" font-size="11.00" fill="#000000">Integrated Score (sum of 12 components)</text>
</g>
<!-- R2&#45;&gt;INT -->
<g id="edge4" class="edge">
<title>R2&#45;&gt;INT</title>
<path fill="none" stroke="#ff7033" stroke-width="1.8" d="M454.4309,-554.9219C463.6587,-551.2042 472.5259,-546.6293 480.432,-541 561.1614,-483.5185 612.7985,-372.5709 633.5253,-320.8311"/>
<polygon fill="#ff7033" stroke="#ff7033" stroke-width="1.8" points="636.868,-321.8937 637.258,-311.306 630.3506,-319.3396 636.868,-321.8937"/>
</g>
<!-- R3 -->
<g id="node3" class="node">
<title>R3</title>
<polygon fill="#00fcb1" stroke="#000000" points="189.3518,-396 43.545,-396 43.545,-360 189.3518,-360 189.3518,-396"/>
<text text-anchor="middle" x="116.4484" y="-374.7" font-family="Helvetica,sans-Serif" font-size="11.00" fill="#000000">③ KEGG:Ferro LE → +1.0</text>
</g>
<!-- R3&#45;&gt;INT -->
<g id="edge5" class="edge">
<title>R3&#45;&gt;INT</title>
<path fill="none" stroke="#00fcb1" stroke-width="1.8" d="M189.6985,-377.1538C263.7326,-375.0894 381.0742,-368.4943 480.432,-348 518.8312,-340.0795 560.7149,-325.8705 592.4704,-313.8791"/>
<polygon fill="#00fcb1" stroke="#00fcb1" stroke-width="1.8" points="593.8965,-317.0809 601.9853,-310.2382 591.3948,-310.5432 593.8965,-317.0809"/>
</g>
<!-- R4 -->
<g id="node4" class="node">
<title>R4</title>
<polygon fill="#02d45c" stroke="#000000" points="215.9037,-504 16.9931,-504 16.9931,-468 215.9037,-468 215.9037,-504"/>
<text text-anchor="middle" x="116.4484" y="-482.7" font-family="Helvetica,sans-Serif" font-size="11.00" fill="#ffffff">④ KEGG:AD LE (GCvsFLT) → +0.25</text>
</g>
<!-- R5 -->
<g id="node5" class="node">
<title>R5</title>
<polygon fill="#91e691" stroke="#000000" points="431.2996,-500 294.0292,-500 294.0292,-464 431.2996,-464 431.2996,-500"/>
<text text-anchor="middle" x="362.6644" y="-485.3" font-family="Helvetica,sans-Serif" font-size="11.00" fill="#000000">⑤ AD LE (BuOE) overlap</text>
<text text-anchor="middle" x="362.6644" y="-472.1" font-family="Helvetica,sans-Serif" font-size="11.00" fill="#000000">only if ④ true → +0.15</text>
</g>
<!-- R4&#45;&gt;R5 -->
<g id="edge2" class="edge">
<title>R4&#45;&gt;R5</title>
<path fill="none" stroke="#02d45c" stroke-width="2" stroke-dasharray="5,2" d="M215.8842,-484.3846C238.4668,-484.0177 262.1539,-483.6329 283.7491,-483.2821"/>
<polygon fill="#02d45c" stroke="#02d45c" stroke-width="2" points="283.8973,-486.7802 293.8391,-483.1181 283.7836,-479.7811 283.8973,-486.7802"/>
</g>
<!-- R5&#45;&gt;INT -->
<g id="edge6" class="edge">
<title>R5&#45;&gt;INT</title>
<path fill="none" stroke="#02d45c" stroke-width="1.8" d="M431.6043,-470.1278C448.2415,-465.593 465.5105,-459.4037 480.432,-451 541.3984,-416.6639 596.3125,-354.1092 624.3179,-318.8877"/>
<polygon fill="#02d45c" stroke="#02d45c" stroke-width="1.8" points="627.1081,-321.0015 630.5238,-310.9723 621.5994,-316.6824 627.1081,-321.0015"/>
</g>
<!-- R6 -->
<g id="node6" class="node">
<title>R6</title>
<polygon fill="#fc0065" stroke="#000000" points="216.8452,-450 16.0516,-450 16.0516,-414 216.8452,-414 216.8452,-450"/>
<text text-anchor="middle" x="116.4484" y="-428.7" font-family="Helvetica,sans-Serif" font-size="11.00" fill="#ffffff">⑥ KEGG:ROS LE (GCvsFLT) → +0.4</text>
</g>
<!-- R7 -->
<g id="node7" class="node">
<title>R7</title>
<polygon fill="#fb9a99" stroke="#000000" points="438.1357,-442 287.1931,-442 287.1931,-406 438.1357,-406 438.1357,-442"/>
<text text-anchor="middle" x="362.6644" y="-427.3" font-family="Helvetica,sans-Serif" font-size="11.00" fill="#000000">⑦ ROS LE (BuOE) overlap</text>
<text text-anchor="middle" x="362.6644" y="-414.1" font-family="Helvetica,sans-Serif" font-size="11.00" fill="#000000">only if ⑥ true → +0.25</text>
</g>
<!-- R6&#45;&gt;R7 -->
<g id="edge3" class="edge">
<title>R6&#45;&gt;R7</title>
<path fill="none" stroke="#fc0065" stroke-width="2" stroke-dasharray="5,2" d="M216.949,-428.7346C236.9913,-428.0833 257.8615,-427.4052 277.3352,-426.7725"/>
<polygon fill="#fc0065" stroke="#fc0065" stroke-width="2" points="277.4986,-430.2691 287.3796,-426.4461 277.2712,-423.2728 277.4986,-430.2691"/>
</g>
<!-- R7&#45;&gt;INT -->
<g id="edge7" class="edge">
<title>R7&#45;&gt;INT</title>
<path fill="none" stroke="#fc0065" stroke-width="1.8" d="M422.7742,-405.9094C441.5162,-399.653 462.0772,-392.1465 480.432,-384 525.4753,-364.0081 574.5443,-335.7461 607.0427,-316.0408"/>
<polygon fill="#fc0065" stroke="#fc0065" stroke-width="1.8" points="609.0409,-318.9217 615.7525,-310.7238 605.3935,-312.947 609.0409,-318.9217"/>
</g>
<!-- R8 -->
<g id="node8" class="node">
<title>R8</title>
<polygon fill="#ffe30d" stroke="#000000" points="452.1998,-311 273.129,-311 273.129,-275 452.1998,-275 452.1998,-311"/>
<text text-anchor="middle" x="362.6644" y="-289.7" font-family="Helvetica,sans-Serif" font-size="11.00" fill="#000000">⑧ Reactome: Iron uptake → +0.4</text>
</g>
<!-- R8&#45;&gt;INT -->
<g id="edge8" class="edge">
<title>R8&#45;&gt;INT</title>
<path fill="none" stroke="#ffe30d" stroke-width="1.8" d="M452.4165,-293C467.0528,-293 482.5388,-293 498.1094,-293"/>
<polygon fill="#ffe30d" stroke="#ffe30d" stroke-width="1.8" points="498.3457,-296.5001 508.3456,-293 498.3456,-289.5001 498.3457,-296.5001"/>
</g>
<!-- R9 -->
<g id="node9" class="node">
<title>R9</title>
<polygon fill="#fff087" stroke="#000000" points="449.6805,-257 275.6483,-257 275.6483,-221 449.6805,-221 449.6805,-257"/>
<text text-anchor="middle" x="362.6644" y="-235.7" font-family="Helvetica,sans-Serif" font-size="11.00" fill="#000000">⑨ Reactome: NO/NOS3 → +0.2</text>
</g>
<!-- R9&#45;&gt;INT -->
<g id="edge9" class="edge">
<title>R9&#45;&gt;INT</title>
<path fill="none" stroke="#fff087" stroke-width="1.8" d="M449.7174,-255.7161C483.779,-262.2567 522.7701,-269.7439 556.8314,-276.2844"/>
<polygon fill="#fff087" stroke="#fff087" stroke-width="1.8" points="556.284,-279.7432 566.7646,-278.1918 557.6041,-272.8688 556.284,-279.7432"/>
</g>
<!-- R10 -->
<g id="node10" class="node">
<title>R10</title>
<polygon fill="#c51bde" stroke="#000000" points="472.2001,-203 253.1287,-203 253.1287,-167 472.2001,-167 472.2001,-203"/>
<text text-anchor="middle" x="362.6644" y="-181.7" font-family="Helvetica,sans-Serif" font-size="11.00" fill="#ffffff">⑩ Reactome: Selective autophagy → +0.3</text>
</g>
<!-- R10&#45;&gt;INT -->
<g id="edge10" class="edge">
<title>R10&#45;&gt;INT</title>
<path fill="none" stroke="#c51bde" stroke-width="1.8" d="M451.7297,-203.0654C461.5105,-205.7441 471.2453,-208.7221 480.432,-212 524.5478,-227.7411 572.2451,-252.3299 604.6606,-270.2891"/>
<polygon fill="#c51bde" stroke="#c51bde" stroke-width="1.8" points="603.3591,-273.5714 613.7951,-275.3988 606.7764,-267.4622 603.3591,-273.5714"/>
</g>
<!-- R11 -->
<g id="node11" class="node">
<title>R11</title>
<polygon fill="#02d3d9" stroke="#000000" points="440.7384,-118 284.5904,-118 284.5904,-82 440.7384,-82 440.7384,-118"/>
<text text-anchor="middle" x="362.6644" y="-103.3" font-family="Helvetica,sans-Serif" font-size="11.00" fill="#000000">⑪ Axis weighting (Hedges g)</text>
<text text-anchor="middle" x="362.6644" y="-90.1" font-family="Helvetica,sans-Serif" font-size="11.00" fill="#000000">→ 0–0.7 (normalized)</text>
</g>
<!-- R11&#45;&gt;INT -->
<g id="edge11" class="edge">
<title>R11&#45;&gt;INT</title>
<path fill="none" stroke="#02d3d9" stroke-width="1.8" d="M408.5959,-118.086C431,-127.7375 457.9056,-140.5916 480.432,-155 533.5003,-188.9438 588.003,-238.4923 618.7403,-268.0638"/>
<polygon fill="#02d3d9" stroke="#02d3d9" stroke-width="1.8" points="616.4118,-270.6812 626.0275,-275.1299 621.2848,-265.6558 616.4118,-270.6812"/>
</g>
<!-- R12 -->
<g id="node12" class="node">
<title>R12</title>
<polygon fill="#94c7eb" stroke="#000000" points="469.6138,-63.6017 255.715,-63.6017 255.715,-16.3983 469.6138,-16.3983 469.6138,-63.6017"/>
<text text-anchor="middle" x="362.6644" y="-49.9" font-family="Helvetica,sans-Serif" font-size="11.00" fill="#000000">⑫ FerrDb: role base (+0.22/+0.11/−0.1)</text>
<text text-anchor="middle" x="362.6644" y="-36.7" font-family="Helvetica,sans-Serif" font-size="11.00" fill="#000000">+ LE bonus (×2 if fGSEA sig ∧ LE true)</text>
<text text-anchor="middle" x="362.6644" y="-23.5" font-family="Helvetica,sans-Serif" font-size="11.00" fill="#000000">max ≈ ±0.6</text>
</g>
<!-- R12&#45;&gt;INT -->
<g id="edge12" class="edge">
<title>R12&#45;&gt;INT</title>
<path fill="none" stroke="#2e88d1" stroke-width="1.8" d="M464.5655,-63.7389C470.1107,-66.4957 475.4461,-69.5705 480.432,-73 554.1813,-123.7272 607.8039,-218.6995 631.0557,-265.4985"/>
<polygon fill="#2e88d1" stroke="#2e88d1" stroke-width="1.8" points="628.0237,-267.2663 635.5527,-274.7205 634.3155,-264.1981 628.0237,-267.2663"/>
</g>
<!-- OUT -->
<g id="node14" class="node">
<title>OUT</title>
<ellipse fill="#2e88d1" stroke="#000000" cx="917.1158" cy="-293" rx="101.5697" ry="18"/>
<text text-anchor="middle" x="917.1158" y="-289.7" font-family="Helvetica,sans-Serif" font-size="11.00" fill="#ffffff">Ranked Target Genes (Top N)</text>
</g>
<!-- INT&#45;&gt;OUT -->
<g id="edge13" class="edge">
<title>INT&#45;&gt;OUT</title>
<path fill="none" stroke="#2e88d1" stroke-width="2.5" d="M779.6982,-293C788.1727,-293 796.6513,-293 805.0035,-293"/>
<polygon fill="#2e88d1" stroke="#2e88d1" stroke-width="2.5" points="805.12,-296.5001 815.12,-293 805.12,-289.5001 805.12,-296.5001"/>
</g>
</g>
</svg>

