<svg width="2209" height="1517" xmlns="http://www.w3.org/2000/svg" xmlns:xlink="http://www.w3.org/1999/xlink" xml:space="preserve" overflow="hidden"><g transform="translate(-1095 -540)"><g><path d="M3033.05 1281.17C3087.55 1248.63 3139.56 1214.25 3182.79 1168.23 3194.69 1155.58 3205.63 1142.15 3214.29 1127.03 3234.09 1092.48 3232.42 1054.16 3191.98 1030.37 3155.87 1009.14 3116.19 999.004 3075.71 991.942 3006.99 979.954 2937.55 976.278 2867.85 977.083 2857.78 977.2 2847.77 977.331 2837.72 978.654 2822.95 980.599 2810.91 974.483 2806.13 963.712 2797.4 944.048 2808.85 925.039 2830.98 925.206 2881.28 925.586 2931.56 923.815 2981.91 926.626 3030.59 929.343 3078.84 934.227 3126.45 944.422 3172.25 954.227 3217.23 966.585 3255.87 994.984 3270.02 1005.38 3281.92 1017.85 3290.9 1032.92 3306.77 1059.56 3303.98 1086.84 3292.82 1114.14 3274.28 1159.45 3241.61 1193.8 3205.36 1225.05 3130.36 1289.72 3045.08 1338.56 2957.37 1383.19 2826.73 1449.65 2689.58 1499.82 2549.93 1543.63 2398.05 1591.28 2243.28 1626.77 2086.97 1655.97 2021.77 1668.15 1956.33 1679.34 1890.51 1687.43 1809.96 1697.33 1729.36 1706.68 1648.13 1710.65 1584.92 1713.74 1521.74 1716.43 1458.6 1714.15 1384.71 1711.49 1310.71 1707.61 1238.71 1688.19 1210.68 1680.64 1182.98 1671.97 1157.65 1657.41 1094.9 1621.33 1080.43 1569.5 1116.16 1506.66 1140.19 1464.41 1173.9 1430.3 1211.1 1399.68 1266.42 1354.15 1327.4 1317.4 1391.44 1285.6 1398.57 1282.06 1405.7 1277.59 1414.2 1279.05 1425.11 1280.92 1432.95 1287.26 1435.21 1298.12 1437.56 1309.43 1435.44 1320.16 1424.32 1326.51 1400.89 1339.88 1377.2 1352.78 1353.77 1366.15 1304.31 1394.36 1256.73 1425.26 1216.15 1465.72 1199.28 1482.55 1184.21 1500.88 1172.64 1521.91 1152.66 1558.23 1160.57 1587.65 1196.04 1609.22 1232.94 1631.66 1274.16 1640.76 1315.91 1647.85 1374.35 1657.78 1433.29 1660.54 1492.55 1660.71 1538.43 1660.84 1584.29 1660.1 1629.98 1657.16 1704.51 1652.38 1778.93 1646.21 1853.07 1636.39 1931.94 1625.94 2010.56 1614.27 2088.78 1599.85 2182.08 1582.65 2274.78 1562.65 2366.7 1539.12 2440.76 1520.16 2513.96 1498.21 2586.67 1474.64 2687.41 1441.98 2786.3 1404.44 2882.55 1360.16 2933.81 1336.58 2983.53 1310 3033.05 1281.17Z" fill="#FF0000" fill-rule="evenodd" fill-opacity="1"/><path d="M2919.17 542C2923.24 550.641 2926.36 559.249 2929.84 567.712 2936.63 584.223 2950.12 590.943 2966.96 591.785 2973.75 592.125 2979.42 593.068 2979.34 601.216 2979.04 628.877 2992.24 645.871 3019.01 652.572 3020.44 652.929 3021.66 654.089 3024 655.481 3019.51 660.404 3013.71 660.874 3008.8 662.654 2988.04 670.18 2978.19 685.292 2978 706.821 2977.94 713.169 2976.44 716.394 2969.63 717.143 2943.33 720.039 2927.2 734.602 2921.13 760.374 2920.81 761.746 2919.36 762.855 2918.51 764 2914.89 762.665 2914.31 759.759 2913.59 757.138 2907.25 734.205 2892.74 720.581 2868.8 717.56 2862.9 716.816 2858.03 715.398 2857.34 707.859 2855.2 684.061 2841.83 668.933 2819.84 660.721 2817.67 659.909 2815.77 658.358 2814 657.305 2814.07 652.19 2818.05 651.915 2820.75 650.984 2843.99 642.969 2855.67 626.211 2857.67 602.32 2858.23 595.572 2860.45 592.172 2867.78 591.897 2889.63 591.079 2903.37 579.388 2910.8 559.178 2912.96 553.313 2912.83 546.312 2919.17 542M2903.95 696.383C2929.51 702.563 2953.35 688.627 2958.82 664.315 2964.46 639.281 2949.05 615.432 2924.3 610.876 2902.16 606.802 2882.75 619.87 2875.21 643.912 2868.16 666.44 2877.75 684.959 2903.95 696.383Z" fill="#FFE600" fill-rule="evenodd" fill-opacity="1"/><path d="M1348.35 1916.53C1359.19 1924.41 1371.05 1928.24 1384 1934.32 1349.71 1947.23 1320.78 1964.66 1314.19 2006 1304.78 1967.21 1277.68 1947.92 1242 1935.09 1279.54 1923.37 1304.85 1901.28 1313.49 1862 1321.94 1883.23 1328.16 1903.88 1348.35 1916.53Z" fill="#00FF00" fill-rule="evenodd" fill-opacity="1"/><path d="M3199.03 1594.54C3182.7 1602.68 3174.81 1616.44 3169.54 1636 3162.72 1623.01 3159.93 1612.37 3152.58 1604.2 3145.03 1595.8 3133.43 1593.87 3123 1584.54 3146.6 1576.6 3160.96 1560.98 3167.9 1537 3176.7 1560.29 3189.77 1578.14 3214 1584.77 3210.39 1592.43 3203.76 1590.94 3199.03 1594.54Z" fill="#FF00FF" fill-rule="evenodd" fill-opacity="1"/><path d="M1548.76 1440.59C1542.74 1444.15 1541.59 1450.02 1539.94 1455.23 1522.4 1510.47 1527.39 1564 1552.97 1615.74 1560.14 1630.25 1559.38 1631.78 1542.95 1631.99 1540.53 1632.02 1538.12 1631.99 1535.7 1631.99 1505.93 1632.03 1505.61 1632.15 1495.11 1604.71 1468.86 1536.12 1472.59 1469.15 1507.85 1404.56 1513.67 1393.89 1513.48 1385.3 1509.29 1374.05 1480.14 1295.86 1493.13 1223.09 1539.69 1155.25 1554.63 1133.48 1572.71 1114.66 1594.19 1099.26 1599.48 1095.46 1600.55 1091.31 1599.49 1084.8 1588.48 1017.74 1608.73 959.263 1649.77 906.925 1663.45 889.479 1678.38 873.059 1697.65 861.387 1701.87 858.83 1703.46 854.997 1704.33 850.491 1719 774.107 1764.69 727.42 1839.89 709.182 1847.61 707.31 1853.51 704.628 1857.69 696.815 1888.63 638.927 1937.44 607.356 2002.83 607.003 2068.55 606.649 2117.8 638.64 2151.87 694.389 2167.14 719.378 2174.79 746.804 2174.82 775.851 2175.08 994.587 2174.99 1213.32 2174.97 1432.06 2174.97 1450.96 2167.59 1461.01 2152.85 1462.68 2135.78 1464.62 2123.19 1453.66 2123.05 1435.91 2122.78 1401.27 2122.93 1366.63 2122.92 1331.98 2122.88 1148.29 2122.88 964.603 2122.78 780.913 2122.75 718.41 2068.11 648.1 1988.36 657.775 1950.24 662.401 1922.09 683.401 1904.99 718.119 1899.43 729.414 1899.67 741.488 1903.25 753.473 1905.33 760.444 1906.91 767.456 1906.74 774.822 1906.43 788.126 1899.29 797.156 1886.67 799.852 1876.21 802.085 1864.27 795.375 1859.42 784.428 1858.45 782.237 1857.66 779.921 1857.15 777.583 1852.63 757.126 1850.2 755.176 1830.96 762.736 1787.55 779.788 1763.07 812.623 1754.46 857.862 1752.94 865.89 1754.68 873.793 1756.42 881.745 1761.07 902.91 1748.24 916.901 1726.74 913.21 1717.4 911.607 1711.07 914.764 1705.14 920.572 1664.94 959.978 1644.97 1007.98 1648.55 1064.1 1651.32 1107.61 1669.75 1144.54 1703.82 1172.87 1716.59 1183.48 1719.4 1198.13 1711.05 1208.88 1702.32 1220.12 1688.04 1221.7 1674.45 1211.75 1654.38 1197.05 1639.73 1177.19 1624.87 1157.6 1615.77 1145.61 1614.74 1145.59 1604.05 1156.7 1562.82 1199.57 1541.41 1250.39 1547.02 1310.09 1551.07 1353.22 1567.08 1391.16 1605.86 1415.86 1618.06 1423.63 1622.14 1437.35 1616.68 1448.29 1610.48 1460.69 1599.22 1464.16 1583.81 1459.77 1570.66 1456.03 1561.1 1446.5 1548.76 1440.59Z" fill="#0900FF" fill-rule="evenodd" fill-opacity="1"/><path d="M2203.01 891.892C2203.01 852.822 2202.98 814.961 2203.03 777.101 2203.14 694.938 2258.84 625.304 2339.47 609.956 2408.87 596.745 2481.63 628.252 2516.71 695.828 2521.11 704.314 2525.86 708.72 2535.94 710.986 2600.69 725.54 2643.87 765.262 2666.96 827.227 2668.22 830.608 2670.18 834.322 2669.77 837.632 2667.55 855.838 2678.25 865.109 2691.14 875.729 2752.36 926.167 2779.22 992.495 2773.41 1070.96 2772.16 1087.94 2777.57 1096.05 2788.82 1105.99 2839.54 1150.84 2870.62 1206.44 2878.56 1274.51 2880.36 1289.91 2880.78 1304.84 2878.01 1320.03 2877.17 1324.62 2876.37 1329 2871.85 1331.04 2858.41 1337.11 2844.85 1342.88 2830.66 1349.06 2826.88 1339.66 2828.26 1331.57 2829.08 1323.91 2834.54 1273.18 2820.4 1227.71 2793.19 1185.5 2785.28 1173.23 2775.51 1162.61 2765.38 1152.24 2758.58 1145.28 2753.73 1146.23 2748.57 1154.66 2735.27 1176.39 2720.12 1196.73 2699.2 1211.88 2681.46 1224.73 2661.76 1217.26 2658.15 1196.39 2656.28 1185.58 2662.05 1177.47 2669.8 1171.38 2701.77 1146.25 2718.66 1112.44 2722.93 1073.14 2729.67 1011.13 2709.33 958.367 2663.23 915.895 2658.04 911.114 2652.52 912.153 2646.32 913.361 2628.94 916.753 2612.22 901.525 2617.28 885.164 2624.1 863.119 2620.64 843.338 2611.03 823.437 2599.56 799.698 2581.52 782.469 2558.95 769.683 2550.57 764.938 2541.81 761.19 2532.15 759.146 2521.23 756.838 2516.98 761.775 2516.01 771.251 2515.02 780.899 2511.73 789.245 2504.36 795.649 2495.32 803.502 2485.43 801.77 2476.27 796.557 2467.27 791.437 2461.3 783.392 2464.99 772.441 2474.33 744.759 2474.03 718.885 2454.24 695.224 2431.64 668.194 2402.42 656.86 2367.92 657.436 2318.92 658.255 2273.1 694.096 2260.28 741.605 2256.71 754.853 2254.86 768.232 2254.88 782.103 2255.15 994.365 2255.16 1206.63 2255.23 1418.89 2255.23 1425.33 2255.28 1431.78 2255.09 1438.22 2254.63 1453.24 2245.63 1462.56 2231.35 1462.98 2216.43 1463.42 2206.51 1454.57 2205.32 1439.17 2201.7 1392.53 2203.54 1345.79 2203.41 1299.09 2203.03 1163.76 2203.11 1028.43 2203.01 891.892Z" fill="#0900FF" fill-rule="evenodd" fill-opacity="1"/><path d="M2811.92 1711.55C2804.66 1718.03 2805.45 1725.86 2805.53 1733.53 2806.46 1822.73 2765.7 1888.32 2691.48 1934.49 2665.06 1950.93 2635.56 1958.88 2604.66 1961.1 2597.54 1961.61 2592.71 1964.02 2588.53 1969.68 2501.78 2087.16 2308.74 2084.09 2229.61 1946.51 2212.91 1917.46 2203.43 1885.95 2203.34 1852.12 2203.17 1794.85 2203.54 1737.58 2203 1680.32 2202.89 1667.96 2206.79 1661.46 2219.22 1659.83 2227.15 1658.8 2235.04 1656.93 2242.7 1654.6 2252.84 1651.51 2255.39 1655.52 2255.35 1665.13 2255.09 1724.42 2255.72 1783.7 2255.08 1842.98 2254.06 1937.47 2327.14 2004.45 2418.3 2002.8 2477.49 2001.73 2526.2 1975.26 2557.92 1923.39 2565 1911.8 2572.47 1909.13 2584.88 1908.88 2654.48 1907.5 2706.12 1876.17 2738.02 1813.62 2745.37 1799.21 2749.98 1783.72 2752.95 1767.8 2753.76 1763.52 2754.57 1759.05 2752.14 1754.83 2747.35 1752.18 2743.57 1755.52 2739.7 1757.07 2717.23 1766.06 2694.2 1772.86 2670.2 1776.41 2654.9 1778.68 2639.85 1771.89 2634.64 1759.72 2627.19 1742.36 2638.8 1724.45 2658.88 1722.95 2761.76 1715.27 2828.48 1635.48 2838.61 1543.61 2840.87 1523.17 2840.23 1503.35 2835.18 1483.77 2832.65 1473.93 2836.23 1469.64 2844.5 1466.31 2853.07 1462.86 2861.73 1459.34 2869.67 1454.68 2879.85 1448.72 2883.06 1453.29 2885.15 1462.64 2891.27 1490.07 2892.3 1518 2889.57 1545.59 2883.25 1609.44 2857.72 1664.93 2811.92 1711.55Z" fill="#0900FF" fill-rule="evenodd" fill-opacity="1"/><path d="M1828.79 1943.2C1863.68 1982.56 1907.93 2002.04 1958.5 2002.61 2039.94 2003.52 2110.3 1950.81 2122.17 1865.46 2124.15 1851.24 2122.82 1836.54 2122.85 1822.06 2122.91 1780.62 2123.2 1739.17 2122.69 1697.73 2122.55 1686.07 2127.18 1680.92 2138.29 1679.34 2147.02 1678.1 2155.59 1675.7 2164.16 1673.54 2171.67 1671.65 2174.8 1674.81 2174.85 1682.02 2174.9 1688.06 2174.92 1694.09 2174.92 1700.13 2174.93 1747.6 2175.11 1795.08 2174.89 1842.56 2174.39 1951.2 2100.91 2035.89 1992.99 2050.51 1912.72 2061.39 1844.01 2036.58 1789.77 1976.51 1777.22 1962.61 1767.01 1954.15 1746.82 1952.6 1704.29 1949.33 1667.75 1929.01 1636.24 1900.56 1592.98 1861.52 1568.49 1812.51 1560.3 1755.02 1558.99 1745.82 1561.86 1741.14 1571.11 1740.47 1572.31 1740.39 1573.52 1740.29 1574.72 1740.2 1608.32 1737.95 1607.58 1738.14 1615.51 1770.03 1632.35 1837.83 1673.96 1882.38 1742.32 1900.07 1758.18 1904.17 1774.74 1906.55 1791.29 1902.52 1798.84 1900.69 1803.53 1903.96 1806.88 1910.49 1812.78 1921.97 1819.6 1932.87 1828.79 1943.2Z" fill="#0900FF" fill-rule="evenodd" fill-opacity="1"/><path d="M2512.14 1645.61C2532.59 1628.8 2546.98 1608.67 2553.94 1583.98 2557.58 1571.09 2564.41 1564.24 2577.84 1562.99 2585.35 1562.29 2592.75 1559.91 2600.09 1557.88 2610 1555.14 2611.92 1558.87 2610.65 1568.34 2601.11 1639.61 2548.48 1699.58 2478.55 1716.87 2466.48 1719.86 2462.52 1724.72 2462.68 1737.11 2463.18 1777.63 2450.8 1814.66 2429.24 1848.71 2426.02 1853.81 2422.42 1858.77 2417.28 1862.14 2407.53 1868.53 2397.77 1868.95 2388.3 1861.44 2379.24 1854.26 2376.33 1843.08 2381.67 1832.2 2389.45 1816.32 2398.39 1801.02 2404.21 1784.2 2409.75 1768.14 2413.69 1751.87 2413.67 1734.72 2413.66 1726.45 2411.86 1719 2408.03 1711.62 2396.2 1688.88 2407.42 1669.16 2432.99 1670.46 2462.59 1671.96 2488.47 1664.51 2512.14 1645.61Z" fill="#0900FF" fill-rule="evenodd" fill-opacity="1"/><path d="M1812.26 1561.01C1819.19 1575.99 1827.75 1589.07 1837 1603.44 1820.93 1610.02 1805.74 1610.98 1790.76 1611.98 1784.71 1612.39 1781.67 1606.01 1778.54 1601.31 1746.42 1553.03 1739.32 1499.93 1749.02 1443.93 1753.9 1415.72 1758.06 1387.58 1755.88 1358.84 1755.37 1352.04 1755.23 1345.2 1757.54 1338.51 1762.28 1324.78 1771.19 1319.43 1786.72 1321.39 1798.67 1322.9 1806.99 1332.6 1807.52 1345.6 1809.03 1383.15 1805.65 1420.31 1799.69 1457.37 1794.01 1492.68 1797.26 1527.17 1812.26 1561.01Z" fill="#0900FF" fill-rule="evenodd" fill-opacity="1"/><path d="M1856.36 922.694C1868.97 906.874 1881.99 892.61 1897.51 880.918 1917.66 865.73 1932.34 846.721 1941.12 822.936 1945.22 811.823 1957.7 803.716 1967.27 805.169 1979.08 806.959 1986.89 813.734 1990.32 825.417 1991.64 829.929 1990.83 834.024 1989.63 838.384 1981.73 866.879 1965.77 889.947 1943.04 908.619 1929.7 919.586 1915.41 929.459 1904.2 942.911 1887.87 962.521 1877.47 984.724 1872.8 1009.83 1869.26 1028.84 1856.85 1038.54 1841.39 1035.43 1827.85 1032.7 1820.68 1018.63 1823.67 1000.6 1828.35 972.354 1839.02 946.595 1856.36 922.694Z" fill="#0900FF" fill-rule="evenodd" fill-opacity="1"/><path d="M2494.49 1005.83C2485.41 964.763 2463.19 933.751 2429.73 910.476 2402.67 891.646 2386.02 865.809 2378.86 833.902 2375.67 819.636 2381.39 810.916 2395.24 806.291 2406.71 802.458 2419.24 807.368 2424.98 818.27 2427.03 822.169 2428.55 826.385 2429.98 830.57 2436.74 850.309 2449 865.803 2465.75 878.023 2504.86 906.549 2532.41 943.058 2543.03 991.079 2544.16 996.166 2544.76 1001.37 2545.61 1006.52 2547.56 1018.39 2542.13 1029.08 2532.01 1033.29 2521.87 1037.51 2508.3 1033.67 2501.77 1024.58 2497.94 1019.27 2495.59 1013.3 2494.49 1005.83Z" fill="#0900FF" fill-rule="evenodd" fill-opacity="1"/><path d="M1848.41 1138.85C1867.17 1105.6 1891.49 1079.85 1927.91 1067.59 1932.53 1066.04 1937.1 1064.95 1942.03 1065 1955.26 1065.15 1964.58 1071.6 1967.4 1082.87 1969.98 1093.17 1964.06 1105.29 1952.86 1110.45 1940.07 1116.35 1927.46 1122.07 1916.66 1131.63 1890.1 1155.15 1881.4 1186.15 1877.67 1219.64 1875.41 1239.93 1860.5 1249.68 1843.11 1242.82 1833.03 1238.84 1828.01 1231.52 1828 1220.56 1827.97 1191.92 1834.5 1164.93 1848.41 1138.85Z" fill="#0900FF" fill-rule="evenodd" fill-opacity="1"/><path d="M2537.59 1182.17C2540.12 1194.54 2542.96 1205.88 2543 1217.58 2543.06 1233.58 2533.92 1244.4 2520.21 1244.98 2505.88 1245.57 2494.41 1235.14 2493.21 1219.68 2491.21 1193.97 2484.4 1170.01 2469.2 1148.73 2458.34 1133.55 2444.93 1122 2426.61 1116.68 2422.77 1115.56 2419.05 1113.83 2415.5 1111.95 2404.15 1105.94 2398.32 1092.34 2402.19 1081.39 2406.54 1069.09 2418.76 1062.57 2432.5 1065.84 2453.48 1070.83 2471 1082.16 2486.67 1096.48 2512.02 1119.66 2529.05 1147.86 2537.59 1182.17Z" fill="#0900FF" fill-rule="evenodd" fill-opacity="1"/><path d="M1904.01 1799.42C1895.55 1777.28 1893.55 1754.89 1891.19 1732.56 1890.26 1723.74 1892.56 1717.82 1902.91 1716.87 1912.13 1716.02 1921.36 1714.52 1930.4 1712.51 1938.56 1710.69 1941.78 1713.76 1941.94 1721.45 1942.75 1760.34 1955.92 1794.99 1977.22 1827.37 1988.67 1844.77 1978.51 1863.47 1957.7 1865.83 1946.18 1867.14 1938.55 1860.53 1932.26 1852.23 1920.27 1836.37 1911.66 1818.67 1904.01 1799.42Z" fill="#0900FF" fill-rule="evenodd" fill-opacity="1"/><path d="M1966.02 1391.61C1968.96 1400.77 1964.69 1407.55 1960.94 1414.06 1945.49 1440.91 1939.02 1469.97 1938.22 1500.58 1937.81 1516.1 1927.41 1526.72 1912.62 1526.99 1898.16 1527.27 1888.68 1517.53 1888.14 1501.31 1886.91 1464.91 1893.96 1430.21 1910.33 1397.51 1912.12 1393.92 1914.16 1390.41 1916.42 1387.09 1931.19 1365.48 1953.59 1367.16 1966.02 1391.61Z" fill="#0900FF" fill-rule="evenodd" fill-opacity="1"/><path d="M2015.85 1238.85C2033.77 1249.76 2051 1260.13 2068.1 1270.69 2085.08 1281.18 2089.44 1295.09 2080.38 1309.08 2071.21 1323.24 2056.87 1324.59 2040.66 1314.17 2014.63 1297.42 1988.17 1281.35 1961.81 1265.11 1956.29 1261.71 1951.01 1258.15 1946.88 1253.03 1938.06 1242.07 1937.69 1229.57 1945.95 1219.68 1952.83 1211.44 1965.8 1209.43 1976.77 1215.61 1989.71 1222.91 2002.34 1230.78 2015.85 1238.85Z" fill="#0900FF" fill-rule="evenodd" fill-opacity="1"/><path d="M2570.53 1447.6C2561.96 1450.81 2558.11 1448.58 2558.14 1440.11 2558.24 1410.52 2557.63 1380.93 2558.38 1351.37 2558.86 1332.47 2570.28 1321.62 2586.69 1322.01 2601.9 1322.37 2612.58 1334.24 2612.86 1352.29 2613.22 1375.47 2612.76 1398.66 2612.94 1421.84 2613.01 1430.17 2610.02 1435.25 2601.42 1437.54 2591.27 1440.25 2581.41 1443.99 2570.53 1447.6Z" fill="#0900FF" fill-rule="evenodd" fill-opacity="1"/><path d="M2451.19 1389.16C2464.14 1413.74 2471.18 1439.02 2472.94 1465.87 2473.52 1474.8 2469.99 1479.07 2461.4 1480.95 2452.37 1482.93 2443.48 1485.72 2434.75 1488.77 2427.28 1491.37 2423.64 1490.26 2422.86 1481.48 2420.75 1457.77 2415.8 1434.83 2405.25 1413.08 2397.14 1396.36 2400.96 1383.59 2413.95 1376.67 2427.97 1369.2 2440.03 1373.03 2451.19 1389.16Z" fill="#0900FF" fill-rule="evenodd" fill-opacity="1"/><path d="M2409.15 1219.55C2430.05 1236.05 2431.55 1257.17 2413.42 1268.63 2400.45 1276.82 2385.16 1275.56 2374.67 1265.41 2364.7 1255.78 2363.25 1242.97 2370.73 1230.59 2378.35 1217.97 2392.16 1213.77 2409.15 1219.55Z" fill="#0900FF" fill-rule="evenodd" fill-opacity="1"/><path d="M2315.13 1263C2332.8 1263.83 2344.77 1273.46 2345.91 1286.91 2347.06 1300.43 2336.6 1314.7 2323.62 1317.3 2308.01 1320.43 2294.63 1312.84 2289.4 1297.89 2283.89 1282.13 2295.12 1266.28 2315.13 1263Z" fill="#0900FF" fill-rule="evenodd" fill-opacity="1"/><path d="M1705.15 1765.17C1689.95 1759.89 1676.13 1754.11 1666 1743.03 1667.22 1739.12 1669.64 1738.41 1672 1738.22 1694.34 1736.38 1716.67 1734.28 1739.04 1733.07 1751.23 1732.4 1753.99 1736.64 1750.74 1748.14 1746.2 1764.24 1731.83 1772.22 1715.42 1767.78 1712.32 1766.95 1709.21 1766.15 1705.15 1765.17Z" fill="#0900FF" fill-rule="evenodd" fill-opacity="1"/><path d="M1408.23 722.952C1417.61 713.373 1427.85 711.432 1438.5 717.367 1447.42 722.336 1453.26 730.347 1451.77 741.461 1450.29 752.488 1444.17 760.249 1433.55 763.679 1422.57 767.227 1413.44 763.461 1407.11 754.378 1400.2 744.457 1400.04 733.796 1408.23 722.952Z" fill="#00FFA3" fill-rule="evenodd" fill-opacity="1"/><path d="M1343.49 698.839C1337.63 692.064 1329.45 690.008 1320 682.99 1341.97 678.611 1349.37 663.444 1355.65 646 1362.26 664.576 1373.2 677.831 1392 684.993 1372.61 690.551 1361.68 702.759 1357.62 722 1348.87 715.58 1350.72 705.029 1343.49 698.839Z" fill="#FFC000" fill-rule="evenodd" fill-opacity="1"/><path d="M1515.04 589.227C1519.74 592.851 1523.83 595.865 1530 600.404 1516.55 605.644 1508.53 614.89 1502.74 631 1496.58 615.792 1489.64 605.877 1473 601.064 1488.67 593.193 1497.83 583.886 1501.08 569 1509.04 574.648 1508.12 584.179 1515.04 589.227Z" fill="#7030A0" fill-rule="evenodd" fill-opacity="1"/><path d="M1453.88 556.14C1459.8 548.655 1465.61 550.292 1471.08 555.036 1475.66 559.004 1476.1 564.513 1473.07 569.239 1469.9 574.191 1464.21 575.049 1459.01 572.879 1451.71 569.829 1450.32 564.009 1453.88 556.14Z" fill="#FF0000" fill-rule="evenodd" fill-opacity="1"/></g></g></svg>